<svg xmlns="http://www.w3.org/2000/svg" xmlns:xlink="http://www.w3.org/1999/xlink" version="1.1" x="0px" y="0px" viewBox="0 0 90 104.88875" style="enable-background:new 0 0 90 83.911;" xml:space="preserve"><g><g><path d="M50.895,33.673c-0.268-0.156-0.571-0.237-0.876-0.237c-0.173,0-0.349,0.027-0.518,0.081L10.472,45.711    c-0.623,0.197-1.086,0.725-1.191,1.371c-0.107,0.646,0.159,1.295,0.688,1.682L37.614,68.93c0.301,0.217,0.66,0.332,1.021,0.332    c0.207,0,0.413-0.039,0.613-0.113l40.49-15.283c0.622-0.236,1.059-0.811,1.113-1.475c0.057-0.664-0.274-1.307-0.85-1.641    L50.895,33.673z M38.636,67.529L10.989,47.363l18.931-5.915l28.584,18.579L38.636,67.529z M60.507,59.273    c-0.003-0.008-0.003-0.014-0.01-0.018L32.068,40.779l17.95-5.61l29.108,17.074L60.507,59.273z"/><path d="M89.906,54.506c-0.368-2.781-1.31-4.643-1.82-5.432c-0.013-0.023-0.021-0.033-0.034-0.053    c-0.013-0.014-0.006-0.039-0.02-0.055l-0.18-0.23c-0.058-0.078-0.092-0.119-0.092-0.119l0,0L59.12,11.761    c-0.196-0.257-0.461-0.45-0.762-0.562L28.57,0.109C28.37,0.038,28.167,0,27.965,0c-0.559,0-1.097,0.271-1.429,0.751    c-0.449,0.656-0.396,1.532,0.129,2.128l23.864,27.092c-0.626,0.014-1.255,0.092-1.868,0.277L4.933,43.414    C2.003,44.297,0,46.99,0,50.049v2.045c0,2.09,0.944,4.072,2.571,5.385l30.776,24.891c1.255,1.014,2.798,1.543,4.358,1.543    c0.906,0,1.82-0.176,2.683-0.543l45.447-19.096c2.376-0.998,3.918-3.234,4.151-5.758C90.008,58.447,90.015,54.988,89.906,54.506z     M27.965,1.733l29.788,11.091l28.912,37.206L54.17,30.912c-0.159-0.095-0.342-0.135-0.508-0.213l-0.382-0.227L27.965,1.733z     M88.351,57.885c0,2.098-1.252,3.98-3.185,4.791l-45.45,19.098c-0.637,0.27-1.313,0.406-2.01,0.406    c-1.185,0-2.349-0.414-3.269-1.158L3.661,56.133c-1.226-0.988-1.929-2.463-1.929-4.039v-2.045c0-2.311,1.488-4.311,3.701-4.973    l43.731-13.169c0.484-0.148,0.985-0.224,1.492-0.224c0.741,0,1.452,0.203,2.122,0.508l32.892,19.266l0.114,0.066    c1.584,0.928,2.565,2.643,2.565,4.477V57.885z"/><path d="M32.109,68.246c-1.908,0-3.458,1.549-3.458,3.457s1.55,3.459,3.458,3.459s3.458-1.551,3.458-3.459    S34.018,68.246,32.109,68.246z M32.109,73.43c-0.954,0-1.726-0.771-1.726-1.727c0-0.953,0.771-1.725,1.726-1.725    s1.726,0.771,1.726,1.725C33.835,72.658,33.063,73.43,32.109,73.43z"/></g></g></svg>
